<svg width="722" height="148" viewBox="0 0 722 148" fill="none" xmlns="http://www.w3.org/2000/svg">
<g clip-path="url(#clip0_900_1594)">
<path d="M26.4652 145.806H2.96768C2.50762 145.842 2.04554 145.842 1.58547 145.806H0V0.93456H0.853716L12.8057 0.487676C18.4159 0.243921 24.2699 0.000165484 29.9614 0.000165484C38.8878 -0.168407 47.8017 0.745577 56.5079 2.7221C73.6092 6.82694 88.6352 17.0021 98.7887 31.3534C108.942 45.7046 113.531 63.254 111.701 80.7346C109.872 98.2151 101.748 114.436 88.8421 126.376C75.9366 138.317 59.1287 145.165 41.5475 145.644C37.0757 145.644 32.2786 145.644 26.4652 145.644V145.806ZM27.3596 135H38.3766C54.0447 135.11 69.1794 129.318 80.7663 118.778C92.3533 108.238 99.5421 93.7227 100.901 78.1237C103.625 45.623 78.4199 14.9099 46.9137 11.9848C40.6532 11.416 34.3519 11.3348 29.5548 11.3348H10.895V135.041L27.3596 135Z" fill="#211E1F"/>
<path d="M56.3048 3.57528C38.2141 -0.85294 19.5543 1.38148 0.894531 1.74711V144.588C1.57894 144.726 2.27143 144.821 2.96784 144.872C15.8142 144.872 28.7013 145.156 41.507 144.872C58.1902 144.327 74.1661 138.009 86.7047 126.998C99.2433 115.986 107.566 100.966 110.252 84.502C113.147 66.6982 109.195 48.4587 99.1881 33.4471C89.1812 18.4356 73.861 7.76377 56.3048 3.57528ZM101.755 78.1237C100.308 94.0938 92.8616 108.923 80.9137 119.627C68.9657 130.331 53.4037 136.114 37.3604 135.812C28.3354 135.812 19.3104 135.812 10.0415 135.812V10.9286C10.4074 10.9286 10.6106 10.4817 10.8139 10.4817C23.0098 10.4817 35.2058 9.95354 46.9952 11.0504C79.6804 13.9349 104.519 45.623 101.755 78.1237Z" fill="#211E1F"/>
<path d="M180.013 148C164.886 148.038 150.363 142.069 139.64 131.406C128.917 120.744 122.872 106.261 122.834 91.1442C122.796 76.0273 128.769 61.5147 139.439 50.7988C150.109 40.0829 164.601 34.0416 179.728 34.0039C183.414 34.0027 187.092 34.3702 190.705 35.1008C204.531 37.6665 216.896 45.3098 225.367 56.5271C233.839 67.7444 237.803 81.7236 236.48 95.7146V96.4865H134.319C134.807 112.737 149.157 130.084 166.841 135.325C171.048 136.584 175.418 137.214 179.81 137.194C188.875 137.194 211.356 134.228 223.878 106.805L224.243 106.034L233.594 110.096L233.309 110.868C229.238 121.726 221.962 131.092 212.444 137.723C202.926 144.354 191.616 147.938 180.013 148ZM225.585 85.355C224.204 74.1815 218.777 63.9001 210.328 56.4526C201.879 49.005 190.994 44.9069 179.728 44.9323H178.834C156.068 45.3792 135.498 64.1483 134.115 85.355H225.585Z" fill="#211E1F"/>
<path d="M190.542 35.9536C180.02 33.8919 169.127 34.8845 159.151 38.8139C149.176 42.7434 140.535 49.4453 134.251 58.1272C127.967 66.8091 124.302 77.1078 123.689 87.8055C123.077 98.5032 125.543 109.152 130.796 118.494C136.048 127.835 143.868 135.478 153.33 140.519C162.792 145.559 173.5 147.787 184.189 146.937C194.877 146.088 205.099 142.198 213.645 135.727C222.192 129.256 228.705 120.474 232.414 110.421L224.609 107.13C211.397 136.056 185.094 141.662 166.516 136.137C147.937 130.612 133.465 112.777 133.465 95.5111H235.626C236.893 81.7541 232.971 68.0205 224.631 57.0029C216.291 45.9852 204.133 38.4782 190.542 35.9536ZM133.383 86.2078C134.074 64.0667 155.377 44.5256 178.834 44.0787C190.631 43.8052 202.098 47.9926 210.939 55.8036C219.78 63.6146 225.345 74.4733 226.52 86.2078H133.383Z" fill="#211E1F"/>
<path d="M249.447 145.522V0.69043H324.859V10.9688H260.302V63.173H320.672V73.7763H260.017V145.522H249.447Z" fill="#211E1F"/>
<path d="M250.301 144.669H259.163V72.9236H319.818V64.0265H259.448V10.116H324.005V1.54395H250.301V144.669Z" fill="#211E1F"/>
<path d="M384.985 148H381.57C374.193 147.7 366.952 145.916 360.281 142.754C353.61 139.591 347.646 135.117 342.746 129.597C332.622 118.592 327.241 104.047 327.766 89.1071C328.291 74.1676 334.68 60.0351 345.552 49.7671C351.481 44.3036 358.487 40.1368 366.12 37.533C373.752 34.9291 381.845 33.9456 389.88 34.6454C397.915 35.3451 405.716 37.7126 412.783 41.5966C419.85 45.4806 426.028 50.7955 430.923 57.2017V37.0512V34.248H441.493V145.482H431.045V142.232V124.641C418.402 140.282 403.32 148 384.985 148ZM384.985 45.0545C374.289 45.0267 363.913 48.707 355.628 55.4682C347.343 62.2293 341.661 71.6528 339.551 82.132C337.44 92.6113 339.032 103.498 344.054 112.935C349.077 122.373 357.22 129.778 367.094 133.887C376.969 137.997 387.964 138.557 398.205 135.472C408.447 132.387 417.3 125.847 423.257 116.969C429.214 108.09 431.905 97.422 430.871 86.7826C429.837 76.1432 425.143 66.1914 417.589 58.6236C413.295 54.3221 408.194 50.9095 402.579 48.5811C396.963 46.2527 390.943 45.0543 384.863 45.0545H384.985Z" fill="#211E1F"/>
<path d="M557.558 72.0707L557.273 71.2988C553.138 60.4334 545.804 51.076 536.238 44.4614C526.673 37.8468 515.325 34.2857 503.692 34.248C500.533 34.2628 497.38 34.5208 494.261 35.0199C480.984 37.3917 468.963 44.3502 460.299 54.6795C451.635 65.0089 446.878 78.0522 446.859 91.5305C447.139 105.091 452.177 118.122 461.094 128.347C470.011 138.572 482.239 145.342 495.643 147.472C498.246 147.795 500.866 147.958 503.489 147.96C515.174 147.919 526.571 144.336 536.174 137.685C545.777 131.033 553.134 121.625 557.273 110.706L557.517 109.934L548.208 105.871L547.882 106.603C535.687 134.066 512.839 137.031 503.652 137.031C492.727 136.844 482.224 132.788 474.011 125.586C465.798 118.384 460.41 108.503 458.805 97.7025C457.199 86.902 459.481 75.8826 465.245 66.6061C471.008 57.3296 479.878 50.398 490.277 47.0452C494.706 45.5632 499.347 44.8086 504.018 44.8108C508.399 44.8244 512.755 45.4814 516.945 46.7608C523.889 48.8645 530.264 52.5175 535.588 57.444C540.913 62.3705 545.047 68.4417 547.679 75.1989L554.265 76.4583L557.558 72.0707Z" fill="#211E1F"/>
<path d="M551.785 75.3605H553.574L554.631 73.9792C554.631 73.9792 555.281 73.0448 556.379 71.6229C551.812 59.2225 543.009 48.8325 531.523 42.2864C520.038 35.7403 506.607 33.4587 493.602 35.8442C480.597 38.2297 468.853 45.129 460.442 55.3248C452.031 65.5205 447.494 78.3573 447.632 91.5702C447.743 104.692 452.457 117.359 460.952 127.365C469.448 137.372 481.186 144.083 494.123 146.33C507.06 148.577 520.376 146.219 531.752 139.664C543.128 133.11 551.843 122.776 556.379 110.461L548.574 107.171C535.646 135.852 509.384 141.581 490.806 136.34C481.211 133.538 472.75 127.771 466.637 119.867C460.524 111.963 457.073 102.327 456.779 92.3421C456.485 82.1034 459.581 72.0539 465.586 63.7532C471.592 55.4526 480.171 49.3649 489.993 46.4349C498.792 43.5159 508.282 43.4023 517.149 46.1099C524.184 48.2561 530.646 51.9554 536.057 56.9341C541.469 61.9128 545.691 68.0436 548.411 74.873L551.785 75.3605Z" fill="#211E1F"/>
<path d="M665.086 148C653.83 148 642.826 144.665 633.466 138.415C624.107 132.165 616.812 123.283 612.504 112.89C608.197 102.497 607.069 91.0612 609.265 80.0283C611.462 68.9954 616.882 58.861 624.842 50.9067C632.801 42.9524 642.943 37.5355 653.983 35.3409C665.023 33.1464 676.467 34.2727 686.867 38.5775C697.266 42.8823 706.155 50.1723 712.409 59.5255C718.663 68.8788 722.001 79.8752 722.001 91.1243C722.001 106.209 716.004 120.675 705.331 131.342C694.657 142.008 680.181 148 665.086 148ZM665.086 44.8108C655.912 44.8188 646.946 47.5453 639.323 52.6454C631.699 57.7456 625.76 64.9903 622.257 73.4635C618.754 81.9367 617.843 91.2577 619.641 100.248C621.439 109.238 625.864 117.494 632.356 123.971C638.849 130.448 647.118 134.856 656.118 136.636C665.117 138.417 674.443 137.491 682.915 133.975C691.388 130.459 698.627 124.511 703.717 116.884C708.808 109.257 711.52 100.292 711.512 91.1243C711.512 78.8196 706.621 67.0189 697.914 58.3182C689.208 49.6175 677.399 44.7295 665.086 44.7295V44.8108Z" fill="#211E1F"/>
<path d="M665.085 35.1006C654.009 35.1086 643.183 38.3978 633.977 44.5523C624.771 50.7068 617.597 59.4505 613.362 69.6782C609.127 79.906 608.021 91.1589 610.184 102.015C612.347 112.87 617.681 122.842 625.513 130.669C633.345 138.495 643.324 143.826 654.187 145.988C665.05 148.149 676.31 147.044 686.545 142.812C696.779 138.58 705.529 131.411 711.688 122.211C717.846 113.01 721.138 102.192 721.146 91.1237C721.151 83.7651 719.705 76.4777 716.889 69.6782C714.074 62.8788 709.944 56.7007 704.738 51.4975C699.531 46.2942 693.349 42.1678 686.545 39.3542C679.741 36.5407 672.448 35.0953 665.085 35.1006ZM665.085 138.29C655.73 138.29 646.586 135.517 638.809 130.322C631.032 125.127 624.973 117.743 621.397 109.105C617.82 100.466 616.889 90.9623 618.72 81.7949C620.551 72.6275 625.062 64.2089 631.682 57.6044C638.302 50.9999 646.734 46.5064 655.911 44.6925C665.088 42.8786 674.597 43.8259 683.234 47.4144C691.872 51.003 699.251 57.0715 704.436 64.852C709.621 72.6326 712.381 81.7755 712.365 91.1237C712.343 103.64 707.352 115.637 698.488 124.48C689.624 133.324 677.61 138.29 665.085 138.29Z" fill="#211E1F"/>
<path d="M599.024 148C597.926 148 596.991 148 596.097 147.797H595.406C591.104 147.52 586.928 146.24 583.21 144.059C579.545 141.841 576.618 138.591 574.795 134.716C572.523 129.346 571.629 123.495 572.193 117.693V47.1668H553.533V36.5228H571.868V0.731445H583.047V36.3603H609.757V47.0043H583.047V117.612C582.892 121.498 583.443 125.379 584.674 129.069C585.587 131.6 587.281 133.776 589.511 135.284C591.969 136.805 594.759 137.711 597.642 137.925C598.17 137.925 599.471 137.925 600.894 137.925H602.317V147.472H601.585C600.744 147.704 599.888 147.88 599.024 148Z" fill="#211E1F"/>
<path d="M589.267 136.016C586.874 134.415 585.052 132.096 584.064 129.394C582.821 125.594 582.257 121.606 582.397 117.612V46.4355H609.106V37.2134H582.397V1.74707H572.925V37.3759H554.631V46.4355H573.25V117.612C572.656 123.251 573.48 128.948 575.649 134.187C577.415 137.925 580.243 141.062 583.779 143.206C587.351 145.263 591.337 146.499 595.447 146.822C597.469 147.115 599.522 147.115 601.545 146.822V138.697C600.191 138.792 598.833 138.792 597.479 138.697C594.573 138.441 591.764 137.524 589.267 136.016Z" fill="#211E1F"/>
</g>
<defs>
<clipPath id="clip0_900_1594">
<rect width="722" height="148" fill="white"/>
</clipPath>
</defs>
</svg>
