<svg width="209" height="327" viewBox="0 0 209 327" fill="none" xmlns="http://www.w3.org/2000/svg">
<path d="M0 245C11.3252 245 29 245 29 245V163L142 125V69H67V123" stroke="#B38F54" stroke-width="21"/>
<path d="M209 69C197.675 69 180 69 180 69V151L67 189V245H142V191" stroke="#B38F54" stroke-width="21"/>
<path d="M209 245H179.5V178" stroke="#B38F54" stroke-width="21"/>
<path d="M0 69H29.5V136" stroke="#B38F54" stroke-width="21"/>
<path d="M67 272V327" stroke="#B38F54" stroke-width="21"/>
<path d="M105 272V314" stroke="#B38F54" stroke-width="21"/>
<path d="M142 272V302" stroke="#B38F54" stroke-width="21"/>
<path d="M56 42V0L81 20L104.5 1L128 20L153 0V42H56Z" fill="#B38F54"/>
</svg>
